<?xml version="1.0" encoding="UTF-8"?>
<!DOCTYPE svg PUBLIC "-//W3C//DTD SVG 1.1//EN" "http://www.w3.org/Graphics/SVG/1.1/DTD/svg11.dtd">
<!-- Creator: CorelDRAW X6 -->
<svg xmlns="http://www.w3.org/2000/svg" xml:space="preserve" width="11.0367in" height="2.64666in" version="1.1" style="shape-rendering:geometricPrecision; text-rendering:geometricPrecision; image-rendering:optimizeQuality; fill-rule:evenodd; clip-rule:evenodd"
viewBox="0 0 11037 2647"
 xmlns:xlink="http://www.w3.org/1999/xlink">
 <defs>
  <style type="text/css">
   <![CDATA[
    .fil4 {fill:none}
    .fil1 {fill:#26275D}
    .fil3 {fill:#292A60}
    .fil2 {fill:#AEAFAF}
    .fil0 {fill:#F17E00}
   ]]>
  </style>
 </defs>
 <g id="Layer_x0020_1">
  <metadata id="CorelCorpID_0Corel-Layer"/>
  <g id="_679830680">
   <g>
    <path class="fil0" d="M5126 568c28,-93 50,-181 61,-284l68 288 -129 -4zm-1029 -551c-41,-19 -1001,-22 -1098,-7 -12,47 -12,244 0,291l173 5c0,42 -14,545 10,586l305 0c13,-23 11,-26 10,-63 0,-24 0,-48 0,-72l0 -451 165 0 -1 554c3,24 -3,-5 3,18l7 15 307 -1 1 -277c51,60 113,243 166,278l884 0c31,-21 32,-75 45,-112l231 0 33 111c219,1 491,14 706,-6 216,-21 363,-125 416,-301 67,-221 -45,-414 -178,-495 -148,-90 -446,-90 -645,-76l0 741c-78,-158 -220,-667 -272,-743l-343 0c-23,35 -168,462 -205,563 -13,35 -22,64 -35,99l-42 97 -2 -758 -318 -1 -4 192 -27 -41c-54,-102 -173,-155 -293,-146zm163 524c2,-2 5,-3 7,-4l43 -19c47,-22 66,-55 97,-94l12 345c-32,-25 -142,-194 -158,-229zm1693 -258c126,4 208,43 205,176 -3,132 -81,160 -205,165l0 -341zm-1973 -44c87,0 82,-3 137,40 15,117 -28,132 -137,132l0 -172z"/>
    <path class="fil1" d="M5877 1164l0 1150c49,-53 113,-110 166,-164 145,-145 403,-390 516,-518 -108,12 -186,117 -244,170 -4,-95 17,-204 17,-305 0,-111 0,-222 0,-333l536 0c1,-7 3,-14 3,-12 0,1 2,-6 3,-8 3,-13 3,-11 5,-27l-2 -172c-95,-16 -2909,-4 -3234,-4 -103,0 -387,-13 -469,5 -5,43 -6,128 -4,172 2,44 -2,44 40,47l1193 -1c491,0 982,0 1473,0z"/>
    <path class="fil1" d="M5836 2633l453 1c4,-117 1,-239 1,-356 0,-135 -27,-259 132,-228 57,86 22,447 28,585 83,4 171,1 255,1 235,0 190,69 190,-554 0,-197 -55,-339 -212,-389 -115,-37 -140,31 -192,83l-608 605c-65,63 -53,94 -47,252z"/>
    <path class="fil1" d="M5077 2006c-27,-29 -19,-28 -34,-67 -37,18 -228,211 -250,248l274 1c47,224 146,355 391,402 69,13 122,24 165,-18 200,-197 217,-176 209,-394 -57,25 -92,70 -183,65 -159,-8 -168,-250 -9,-269 91,-11 137,41 194,69l0 -371c-271,-123 -683,-34 -757,335z"/>
    <path class="fil1" d="M4379 2050c8,-182 203,-144 208,0l-208 0zm-89 577l225 -224c-122,2 -133,-43 -139,-159 74,0 148,0 222,0 104,1 97,-21 149,-74 44,-44 201,-187 223,-232 -148,-276 -633,-363 -897,-114 -211,199 -182,554 -5,694 46,36 145,97 221,108z"/>
    <path class="fil1" d="M3179 1682l266 -11 0 495c50,-29 162,-154 211,-203l521 -517c32,-38 19,-130 19,-194 -269,-10 -728,-1 -1017,-1l0 432z"/>
    <path class="fil1" d="M3404 2319l1 317 481 0 1 -831c-45,23 -351,342 -436,424 -30,29 -47,32 -47,89z"/>
    <path class="fil1" d="M6978 52c-88,21 -97,91 -92,187 5,92 10,189 14,281 7,152 -31,466 164,435 95,-15 94,-110 92,-199l-11 -585c-9,-79 -79,-141 -167,-120z"/>
    <path class="fil1" d="M7259 23c-88,34 -83,75 -81,179l11 503c15,61 86,117 166,75 84,-44 68,-339 73,-444 3,-52 18,-204 5,-244 -17,-57 -102,-97 -175,-68z"/>
    <path class="fil1" d="M7552 98c-83,30 -84,68 -88,165 -3,80 -7,157 -11,237 -2,52 -17,190 -3,231 16,47 105,89 170,58 80,-38 107,-613 99,-635 -17,-46 -102,-79 -168,-56z"/>
    <path class="fil1" d="M4392 2587c288,51 637,-86 664,-316l-314 0c-65,0 -114,73 -184,142 -46,46 -138,125 -167,174z"/>
    <path class="fil1" d="M7200 1165l527 -2c16,-52 9,-165 5,-221l-533 -2 0 225z"/>
    <path class="fil2" d="M7857 55c-52,28 -89,203 -111,272 -45,139 78,210 161,130 20,-20 112,-212 130,-251 48,-105 -75,-207 -180,-151z"/>
    <path class="fil1" d="M7200 1165c-72,-3 -255,-11 -316,5l-1 240c52,13 259,11 313,2l4 -247z"/>
    <path class="fil2" d="M6698 245c-106,82 -42,390 99,264 134,-120 3,-342 -99,-264z"/>
    <path class="fil1" d="M3963 1729l191 8 0 -199c-35,18 -174,156 -191,191z"/>
    <path class="fil3" d="M5618 2646c33,0 48,-4 78,-11 91,-22 72,-3 82,-149l-160 159z"/>
   </g>
   <rect class="fil4" width="11036" height="2646"/>
  </g>
 </g>
</svg>
