<?xml version="1.0" encoding="UTF-8"?>
<!DOCTYPE svg PUBLIC "-//W3C//DTD SVG 1.1//EN" "http://www.w3.org/Graphics/SVG/1.1/DTD/svg11.dtd">
<!-- Creator: CorelDRAW X7 -->
<svg xmlns="http://www.w3.org/2000/svg" xml:space="preserve" width="3.93701in" height="1.5748in" version="1.1" style="shape-rendering:geometricPrecision; text-rendering:geometricPrecision; image-rendering:optimizeQuality; fill-rule:evenodd; clip-rule:evenodd"
viewBox="0 0 3937 1575"
 xmlns:xlink="http://www.w3.org/1999/xlink">
 <defs>
  <style type="text/css">
   <![CDATA[
    .fil0 {fill:none;fill-rule:nonzero}
    .fil5 {fill:#336699}
    .fil1 {fill:#2269D4;fill-rule:nonzero}
    .fil2 {fill:#336699;fill-rule:nonzero}
    .fil4 {fill:#508CE6;fill-rule:nonzero}
    .fil3 {fill:#E97028;fill-rule:nonzero}
   ]]>
  </style>
 </defs>
 <g id="Layer_x0020_1">
  <metadata id="CorelCorpID_0Corel-Layer"/>
  <g id="_620386488">
   <g>
    <path class="fil0" d="M920 691c-25,-22 -50,-44 -74,-66l-32 14c-36,16 -79,3 -103,-25 0,0 -25,12 -62,29l2 28c2,40 -24,75 -59,89 0,0 5,55 11,126l32 4c39,6 68,40 74,76 0,0 39,5 93,12l8 -18c18,-35 59,-52 95,-47 0,0 21,-45 49,-104l-15 -13c-29,-27 -34,-71 -19,-105z"/>
    <path class="fil1" d="M740 379c13,-7 25,-10 33,-11 -10,-11 -21,-22 -29,-34 -10,-14 -19,-28 -27,-42 -18,-30 -35,-61 -52,-92 -16,-31 -33,-63 -49,-95 71,-16 145,-20 218,-14 70,6 140,21 206,46l1 -1c1,0 2,1 2,1l26 -68c-66,-25 -135,-41 -206,-48 -72,-8 -146,-7 -218,5 -66,10 -132,30 -193,58 -59,27 -114,62 -165,102 -30,23 -59,47 -85,75l50 49 2 1c21,-22 44,-41 67,-60 25,-20 50,-38 77,-55 19,-12 39,-24 59,-34 36,59 73,118 111,175 17,26 33,51 52,75 0,0 0,0 0,0 14,16 29,31 44,46 15,-43 55,-68 76,-79 13,-7 -21,11 0,0z"/>
    <path class="fil1" d="M950 579l-51 23 -31 13 -22 10c24,22 49,44 74,66 -15,34 -10,78 19,105l15 13 28 26 25 24 41 37c10,10 28,11 41,5 6,-2 10,-6 12,-12 1,-6 0,-12 1,-17 0,-5 1,-8 5,-9 5,-2 11,-3 16,-5 6,-2 12,-6 14,-13 2,-6 1,-12 2,-19 1,-14 17,-11 27,-15 5,-3 9,-7 10,-13 1,-6 1,-12 1,-17 0,-4 0,-9 3,-12 4,-2 9,-2 13,-3 14,-6 18,-20 15,-33 -2,-8 -6,-15 -11,-21l-27 -24c13,-1 11,-17 8,-25 -5,-12 -14,-22 -23,-31 -18,-20 -42,-35 -68,-42 -7,-2 -15,-4 -22,-4 0,0 0,-1 0,-1 -15,-1 -32,2 -48,8 0,0 -3,-3 -9,-7l0 0c-8,-7 -21,-19 -38,-34 -3,12 -10,23 -20,27z"/>
    <path class="fil2" d="M381 651c-2,-18 -1,-31 2,-40 -26,10 -51,20 -78,25 -26,5 -53,8 -79,11 -47,5 -95,9 -142,12 13,-67 35,-133 67,-193 19,-37 41,-71 65,-104l-57 -44c-41,53 -74,112 -100,173 -27,65 -45,134 -53,203 -9,75 -7,150 5,224 12,69 33,136 63,199 9,20 20,39 31,58l62 -36c-35,-60 -60,-125 -76,-193 -9,-39 -15,-80 -17,-121 66,-10 133,-20 199,-33 22,-4 44,-8 65,-14 28,-8 54,-20 81,-31 0,0 1,0 2,-1 -28,-18 -33,-42 -40,-95 -2,-18 7,53 0,0z"/>
    <path class="fil2" d="M645 579l2 34 2 30c37,-17 62,-29 62,-29 24,28 67,41 103,25l32 -14 22 -10 31 -13 51 -23c13,-6 22,-22 21,-37 0,-6 -2,-12 -8,-15 -4,-3 -10,-5 -14,-7 -4,-2 -7,-4 -6,-9 1,-7 2,-14 2,-21 -1,-7 -4,-12 -10,-16 -4,-3 -10,-4 -14,-7 -12,-7 -2,-22 -3,-32 -1,-13 -14,-16 -24,-21 -3,-1 -7,-3 -8,-7 0,-4 2,-8 2,-12 0,-13 -8,-23 -20,-27 -9,-2 -19,-2 -28,1l-44 20c4,-10 -7,-18 -16,-20 -14,-3 -29,4 -41,10 -19,11 -37,24 -52,40 -16,19 -27,43 -27,68 0,0 -11,5 -29,14 6,6 10,14 10,22l4 56z"/>
    <path class="fil3" d="M480 1106l-3 0c0,1 0,2 0,4 0,-2 2,-3 3,-4z"/>
    <path class="fil4" d="M488 869l55 8 34 5 26 4c-6,-71 -11,-126 -11,-126 35,-14 61,-49 59,-89l-2 -28 -2 -30 -2 -34 -4 -56c-1,-15 -14,-30 -29,-33 -6,-2 -11,-1 -16,3 -5,4 -8,9 -12,12 -4,3 -7,2 -10,0 -6,-2 -11,-5 -16,-7 -6,-2 -13,-3 -18,1 -5,3 -8,8 -12,11 -3,4 -8,6 -12,4 -5,-2 -9,-5 -14,-8 -5,-3 -11,-5 -17,-3 -5,2 -9,7 -13,11 -3,3 -7,8 -11,9 -4,1 -7,-1 -10,-3 -9,-6 -22,-6 -31,2 -8,7 -14,20 -13,32l2 42c-5,-2 -10,-2 -15,1 -10,5 -13,18 -14,28 -1,16 2,32 4,47 2,13 4,25 8,37 4,11 10,21 19,29 12,12 28,19 44,26 0,0 5,48 10,110 7,-4 15,-6 23,-5z"/>
    <path class="fil4" d="M559 1150c-55,-3 -77,-14 -83,-24 -2,22 -6,43 -11,65 -7,31 -16,62 -24,93 -10,34 -19,69 -30,103 -83,-51 -156,-118 -214,-202l-2 2 -58 40c34,49 74,94 118,134 44,39 91,73 143,101 50,28 104,51 160,67 56,16 114,26 172,29 66,4 132,-1 197,-15l-15 -71c-1,1 -2,1 -3,1l0 -1c-73,15 -148,19 -223,9 -41,-5 -81,-13 -121,-26 14,-64 27,-129 39,-193 6,-38 14,-77 14,-116 -23,6 -45,5 -59,4 -55,-3 14,1 0,0z"/>
    <path class="fil1" d="M769 1043l15 -30 18 -35c-54,-7 -93,-12 -93,-12 -6,-36 -35,-70 -74,-76l-32 -4 -26 -4 -34 -5 -55 -8c-15,-3 -32,8 -38,21 -3,6 -4,11 -1,17 3,5 7,9 9,14 2,4 1,7 -1,10 -4,4 -8,8 -10,13 -3,5 -6,12 -4,18 1,5 6,10 9,15 2,4 3,9 1,13 -3,4 -7,8 -11,11 -3,4 -7,10 -6,16 1,5 4,11 7,15 3,4 7,8 7,13 1,4 -2,6 -4,9 -9,8 -12,21 -5,31 5,10 17,18 28,20l8 1 3 0c-6,5 -8,13 -4,20 1,2 3,4 5,5 5,5 13,8 20,10 12,4 24,6 37,7 15,2 31,3 46,2 20,0 39,-4 57,-12 18,-8 33,-20 43,-36 0,0 23,2 57,6 0,-5 1,-10 3,-15l25 -50z"/>
    <path class="fil2" d="M1148 624c20,20 29,35 32,46 6,-11 12,-20 20,-30 7,-8 14,-17 21,-25 20,-22 42,-44 63,-65 33,-33 66,-65 100,-97 33,61 57,128 71,196 8,40 13,81 14,122l72 -2c-2,-73 -14,-146 -36,-216 -21,-66 -51,-129 -88,-187 -38,-57 -83,-110 -134,-155 -47,-43 -100,-79 -157,-109l-34 64c74,39 139,89 194,149 -44,48 -87,96 -129,145 -30,36 -61,72 -85,113 -2,4 -5,8 -7,13 37,3 68,24 83,38 20,20 -15,-14 0,0z"/>
    <path class="fil2" d="M1034 1112c5,-20 12,-40 13,-61 2,-26 -4,-52 -20,-73 0,0 13,-31 34,-75 -5,-1 -10,-3 -13,-7l-41 -37 -25 -24 -28 -26c-28,59 -49,104 -49,104 -36,-5 -77,12 -95,47l-8 18 -18 35 -15 30 -25 50c-6,13 -2,31 7,42 5,4 10,8 16,7 6,0 11,-3 17,-4 4,-1 7,-1 9,3 3,4 5,8 8,12 4,5 9,11 16,12 6,1 12,-2 18,-4 5,-1 11,-1 14,3 4,4 5,10 8,14 3,5 8,10 14,10 5,1 11,-1 17,-2 4,-1 9,-4 14,-3 3,2 5,6 6,9 7,12 21,16 33,11 9,-3 18,-10 22,-19l20 -40c2,6 9,8 14,9 7,0 14,-3 19,-7 10,-8 15,-21 18,-34 5,-21 -5,21 0,0z"/>
    <path class="fil1" d="M1471 820c0,0 0,0 0,0l-3 0c-5,108 -39,216 -96,313 -61,-27 -123,-54 -185,-78 -22,-9 -44,-18 -66,-25 -25,-8 -51,-13 -77,-17 7,27 2,56 -5,82 -6,19 -9,44 -28,54 14,3 28,6 41,11 10,3 20,7 29,11 28,12 54,25 81,39 36,18 72,37 107,57 -86,90 -195,158 -312,194l22 69c1,0 2,0 2,-1l1 1c61,-19 120,-45 175,-79 54,-32 104,-71 149,-115 49,-48 93,-102 128,-161 36,-59 64,-122 83,-188 15,-53 24,-108 27,-163l-73 -4z"/>
   </g>
   <g>
    <path class="fil5" d="M1919 310l363 0c2,0 4,0 6,1 2,1 4,2 5,4 1,1 3,3 4,4 1,2 1,4 1,6l0 204c0,4 1,7 2,11 1,3 3,7 5,10 2,3 4,6 7,9 2,4 5,7 8,10 3,3 6,6 8,10 3,3 5,6 7,10 2,3 4,6 5,10 1,3 2,7 2,11l0 207c0,2 -1,4 -1,6 -1,2 -2,4 -3,6 -2,1 -3,3 -5,4 -1,1 -3,2 -5,2l-76 0c-1,0 -3,-1 -5,-1 -2,-1 -3,-2 -5,-3 -2,-1 -3,-3 -5,-4 -1,-2 -1,-4 -1,-5l0 -201c0,-2 -1,-4 -2,-6 -1,-2 -2,-4 -4,-5 -1,-2 -3,-3 -6,-3 -2,-1 -4,-2 -6,-2l-237 0c-1,0 -3,1 -5,1 -3,1 -4,2 -6,3 -2,1 -3,2 -5,4 -1,2 -1,4 -1,6l0 199c0,2 -1,4 -2,6 -1,2 -2,4 -4,5 -2,2 -4,3 -6,4 -2,1 -4,2 -6,2l-71 0c-2,0 -4,-1 -6,-2 -2,-1 -4,-2 -6,-3 -2,-2 -4,-3 -5,-5 -1,-2 -1,-4 -1,-6l0 -205c0,-4 1,-8 2,-12 1,-3 3,-7 5,-11 2,-3 4,-7 7,-10 3,-3 6,-7 9,-10 2,-4 5,-7 8,-10 3,-4 5,-7 7,-11 2,-3 4,-7 5,-11 1,-3 2,-7 2,-11l0 -203c0,-2 0,-4 1,-6 1,-2 3,-4 5,-5 2,-2 4,-3 6,-3 2,-1 3,-1 5,-1zm43 72l0 155c0,1 1,2 2,4 2,1 3,2 5,3 2,1 4,2 6,2 2,1 4,1 5,1l244 0c2,0 3,-1 5,-1 2,-1 3,-2 4,-4 1,-1 2,-3 3,-4 1,-1 1,-3 1,-5l0 -150c0,-1 0,-3 -1,-5 -1,-2 -3,-4 -4,-6 -2,-1 -4,-3 -6,-4 -2,-1 -4,-1 -5,-1l-243 0c-2,0 -4,0 -6,1 -2,1 -3,2 -5,4 -1,1 -2,3 -3,5 -1,2 -2,4 -2,5zm443 435l0 -479c0,-3 1,-6 2,-10 1,-3 3,-6 6,-9 2,-2 5,-4 8,-6 3,-2 6,-3 9,-3l327 0c3,0 7,1 10,3 4,2 8,4 11,6 3,3 6,6 8,10 2,3 2,7 2,10l0 183c0,4 1,6 3,8 2,3 5,4 8,6 3,1 7,3 11,3 4,1 7,3 12,4 4,1 8,2 12,4 3,1 7,3 10,6 3,3 5,6 7,9 2,4 3,9 3,15l0 243c0,2 0,3 -1,5 0,2 -1,3 -2,5 0,1 -1,2 -2,3 -1,1 -2,2 -4,2l-34 0c-2,0 -4,-1 -5,-1 -2,-1 -4,-2 -5,-3 -2,-1 -3,-3 -4,-4 -1,-2 -2,-4 -2,-5l0 -205c0,-2 -1,-4 -2,-6 -2,-2 -3,-4 -5,-6 -3,-1 -5,-2 -7,-3 -3,0 -5,-1 -8,-1l-241 0c-2,0 -4,1 -6,2 -2,1 -5,2 -7,3 -2,2 -4,4 -5,6 -1,2 -2,4 -2,7l0 200c0,2 0,4 -2,6 -1,2 -2,3 -4,5 -2,1 -4,2 -6,3 -2,1 -4,2 -6,2l-70 0c-2,0 -4,-1 -7,-2 -2,-1 -4,-2 -6,-4 -2,-1 -3,-3 -4,-5 -2,-3 -2,-5 -2,-7zm75 -442c-3,0 -5,1 -7,3 -2,2 -3,4 -3,6l0 142c0,2 1,4 3,6 2,2 4,3 7,3l235 0c2,0 5,-1 7,-3 2,-2 3,-4 3,-6l0 -142c0,-2 -1,-4 -3,-6 -2,-2 -5,-3 -7,-3l-235 0zm436 443l0 -480c0,-4 1,-7 4,-10 2,-4 4,-7 8,-9 3,-3 6,-4 10,-6 4,-2 8,-3 12,-3l201 0c4,0 8,1 12,2 4,1 8,3 11,6 3,3 6,6 8,10 2,3 3,8 3,14 0,-6 1,-11 4,-14 2,-4 5,-7 8,-10 3,-3 6,-5 10,-6 4,-1 8,-2 12,-2l184 0c3,0 6,1 9,3 4,2 7,3 10,6 2,2 4,5 6,8 2,3 3,7 3,10l0 481c0,2 -1,3 -1,5 -1,2 -1,4 -2,6 -1,1 -2,3 -4,4 -1,1 -2,2 -4,2l-28 0c-2,0 -3,-1 -5,-1 -1,-1 -3,-2 -4,-4 -2,-1 -3,-2 -3,-4 -1,-1 -2,-3 -2,-4l0 -437c0,-2 0,-4 0,-6 -1,-2 -2,-4 -3,-5 -1,-2 -2,-3 -4,-4 -1,-1 -3,-2 -5,-2l-124 0c-3,0 -7,1 -10,3 -3,2 -6,4 -9,7 -2,3 -4,6 -6,10 -1,3 -2,7 -2,10l0 421c0,2 0,4 -1,5 -1,2 -2,4 -3,5 0,2 -2,3 -3,4 -2,1 -3,2 -5,2l-30 0c-2,0 -4,-1 -6,-2 -2,-1 -4,-2 -6,-4 -2,-1 -4,-3 -5,-5 -1,-2 -1,-4 -1,-6l0 -421c0,-3 -1,-6 -3,-10 -1,-3 -3,-6 -6,-9 -2,-3 -5,-5 -8,-7 -3,-2 -7,-3 -10,-3l-132 0c-2,0 -5,1 -7,2 -1,1 -3,2 -5,4 -2,2 -3,4 -4,6 -1,2 -2,5 -2,7l0 125c0,5 1,9 2,13 2,4 3,9 5,13 2,4 4,8 7,12 3,4 6,8 9,12 2,4 5,8 8,12 2,4 5,8 7,12 2,4 4,9 5,13 2,4 3,8 3,13l0 205c0,2 -1,4 -3,7 -1,2 -3,4 -5,5 -2,2 -4,3 -6,4 -3,1 -5,2 -7,2l-70 0c-2,0 -4,-1 -6,-2 -2,-1 -4,-2 -5,-4 -2,-1 -3,-3 -4,-5 -1,-2 -2,-4 -2,-6zm578 -470c0,-4 1,-9 3,-13 2,-4 5,-8 8,-12 3,-4 7,-7 11,-9 5,-3 9,-4 13,-4l374 0c4,0 8,1 12,3 4,2 7,4 10,7 3,3 6,6 8,9 2,4 3,8 3,11l0 94c0,1 0,2 -1,4 0,1 -1,3 -2,4 -1,2 -2,3 -4,4 -1,0 -3,1 -4,1l-41 0c-1,0 -3,-1 -4,-1 -2,-1 -3,-2 -5,-4 -1,-1 -2,-3 -3,-4 -1,-2 -1,-3 -1,-4l0 -53c0,-2 0,-3 -1,-5 -1,-2 -3,-3 -4,-4 -1,-2 -3,-3 -5,-4 -2,-1 -4,-1 -5,-1l-285 0c-2,0 -3,0 -5,1 -1,1 -2,3 -4,4 -1,2 -2,4 -2,5 -1,2 -1,4 -1,5l0 153c0,2 1,4 3,6 2,1 4,2 6,2l335 0c4,0 8,1 12,3 4,2 7,5 10,8 3,3 6,6 8,11 2,4 3,8 3,12l0 227c0,3 -1,7 -3,11 -1,3 -4,7 -6,10 -3,3 -6,5 -10,7 -3,2 -7,3 -10,3l-375 0c-5,0 -9,-1 -14,-3 -5,-2 -9,-5 -13,-8 -4,-3 -7,-7 -9,-11 -2,-4 -3,-8 -3,-12l0 -90c0,-1 1,-3 2,-5 1,-2 2,-4 3,-6 2,-2 3,-3 5,-4 2,-1 4,-2 6,-2l33 0c2,0 4,0 6,1 2,1 4,2 5,3 2,2 3,3 4,5 1,2 2,4 2,6l0 53c0,1 0,3 1,4 1,2 2,3 3,5 1,1 2,2 3,3 2,0 3,1 5,1l247 0c2,0 3,-1 4,-1 2,-1 3,-1 4,-3 2,-1 3,-2 3,-3 1,-2 1,-3 1,-4l0 -150c0,-1 0,-3 -1,-4 0,-1 -1,-2 -2,-3 -1,-2 -2,-2 -4,-3 -1,0 -2,-1 -3,-1l-292 0c-4,0 -8,-1 -12,-3 -4,-1 -7,-4 -11,-6 -3,-3 -6,-6 -8,-10 -2,-4 -3,-7 -3,-11l0 -225z"/>
    <path class="fil5" d="M1856 1027c0,-2 1,-3 1,-5 1,-2 2,-3 4,-4 1,-2 2,-3 4,-3 2,-1 3,-1 5,-1l139 0c0,0 1,0 2,0 1,0 2,0 3,1 1,0 2,1 2,1 1,1 1,2 1,3l0 15c0,1 0,2 0,3 -1,1 -2,2 -2,2 -1,1 -2,2 -3,2 -1,0 -2,1 -3,1l-118 0c-1,0 -1,0 -2,0 0,0 -1,1 -1,1 -1,1 -1,1 -2,2 0,1 0,1 0,2l0 74c0,0 0,1 0,2 1,0 1,1 2,2 0,0 1,1 2,1 0,0 1,1 2,1l117 0c1,0 2,0 3,0 1,0 1,1 2,1 1,1 1,1 2,2 1,1 1,2 1,2l0 14c0,1 0,2 -1,3 0,1 -1,2 -2,2 -1,1 -1,2 -2,2 -1,1 -2,1 -3,1l-100 0c0,0 -1,1 -2,1 -1,0 -1,1 -2,1 0,1 -1,2 -1,2 -1,1 -1,2 -1,3l0 69c0,1 0,2 1,2 0,1 1,2 1,2 1,0 2,1 2,1 1,0 2,0 2,0l102 0c1,0 2,1 3,1 1,0 2,1 3,1 0,1 1,1 2,2 1,1 1,1 1,2l0 18c0,1 0,2 -1,2 0,1 0,2 -1,2 0,1 -1,1 -1,2 -1,0 -2,0 -2,0l-145 0c-2,0 -3,0 -5,-1 -1,0 -3,-1 -4,-2 -2,-1 -3,-2 -4,-3 0,-1 -1,-3 -1,-5l0 -227zm193 -3c0,-1 0,-2 1,-3 0,-2 0,-3 1,-4 1,-1 1,-2 2,-2 1,-1 2,-1 3,-1l17 0c2,0 4,0 6,1 2,1 3,2 5,3l148 208 0 -202c0,-2 0,-3 1,-4 0,-1 0,-2 1,-3 0,-1 1,-1 2,-2 1,-1 2,-1 3,-1l16 0c1,0 2,0 3,1 1,1 1,2 2,3 1,1 1,2 2,3 0,1 1,3 1,4l0 226c0,1 -1,3 -1,4 0,2 0,4 -1,5 -1,1 -1,3 -2,4 -1,1 -2,1 -3,1l-20 0c-3,0 -6,-1 -9,-2 -3,-2 -5,-3 -7,-6l-143 -193 0 46c0,2 0,4 1,7 0,2 1,4 2,6 1,2 2,4 3,6 2,2 3,4 4,6 2,2 3,4 4,6 2,2 3,4 4,6 1,2 2,4 2,6 1,2 1,4 1,7l0 98c0,1 0,2 -1,3 0,0 -1,1 -2,2 -1,1 -2,1 -3,2 -1,0 -2,0 -3,0l-31 0c-1,0 -2,0 -3,0 -1,-1 -2,-1 -3,-2 -1,-1 -2,-2 -2,-3 -1,-1 -1,-1 -1,-2l0 -234zm246 -10l196 0c1,0 2,0 4,0 1,1 3,2 4,3 1,1 3,2 3,3 1,2 2,3 2,5l0 32c0,1 -1,2 -1,4 -1,1 -2,2 -3,3 -1,1 -2,1 -4,2 -1,0 -2,0 -3,0l-70 0c-1,0 -3,1 -4,1 -1,1 -3,1 -4,2 -1,1 -2,1 -3,2 0,1 -1,2 -1,3l0 182c0,1 0,2 0,3 0,1 -1,2 -2,3 0,1 -1,2 -2,2 0,1 -1,1 -2,1l-18 0c-1,0 -2,0 -3,-1 -1,0 -2,-1 -2,-2 -1,-1 -2,-2 -2,-3 -1,-1 -1,-2 -1,-3l0 -207c0,-1 0,-2 -1,-3 0,-2 -1,-3 -2,-4 -1,-1 -2,-2 -3,-2 -1,-1 -2,-1 -3,-1l-75 0c-1,0 -2,0 -2,-1 -1,0 -2,0 -3,-1 -1,0 -1,-1 -2,-2 0,0 0,-1 0,-2l0 -13c0,-1 0,-2 0,-3 1,0 1,-1 2,-2 1,0 2,-1 3,-1 0,0 1,0 2,0zm232 13c0,-2 0,-3 1,-5 1,-2 2,-3 3,-4 2,-2 3,-3 5,-3 1,-1 3,-1 5,-1l138 0c1,0 2,0 3,0 1,0 2,0 3,1 1,0 2,1 2,1 1,1 1,2 1,3l0 15c0,1 0,2 -1,3 0,1 -1,2 -2,2 0,1 -1,2 -2,2 -1,0 -2,1 -3,1l-118 0c-1,0 -1,0 -2,0 -1,0 -1,1 -2,1 0,1 0,1 -1,2 0,1 0,1 0,2l0 74c0,0 0,1 0,2 1,0 1,1 2,2 0,0 1,1 1,1 1,0 2,1 3,1l117 0c1,0 2,0 3,0 0,0 1,1 2,1 1,1 1,1 2,2 0,1 1,2 1,2l0 14c0,1 -1,2 -1,3 0,1 -1,2 -2,2 -1,1 -2,2 -2,2 -1,1 -2,1 -3,1l-100 0c0,0 -1,1 -2,1 -1,0 -1,1 -2,1 -1,1 -1,2 -1,2 -1,1 -1,2 -1,3l0 69c0,1 0,2 1,2 0,1 0,2 1,2 1,0 2,1 2,1 1,0 2,0 2,0l101 0c1,0 2,1 3,1 1,0 2,1 3,1 1,1 2,1 3,2 0,1 1,1 1,2l0 18c0,1 0,2 -1,2 0,1 0,2 -1,2 0,1 -1,1 -1,2 -1,0 -2,0 -2,0l-145 0c-2,0 -3,0 -5,-1 -1,0 -3,-1 -4,-2 -2,-1 -3,-2 -4,-3 -1,-1 -1,-3 -1,-5l0 -227zm192 230l0 -230c0,-1 1,-3 1,-4 1,-2 2,-3 3,-5 1,-1 3,-2 4,-3 2,-1 3,-1 5,-1l156 0c2,0 3,0 5,1 2,1 4,2 5,3 2,2 3,3 4,5 1,2 1,3 1,5l0 87c0,2 1,3 2,4 1,1 2,2 3,3 2,1 3,1 5,2 2,0 4,1 6,1 2,1 4,2 6,2 2,1 3,2 5,3 1,1 2,3 3,5 1,1 2,4 2,6l0 117c0,1 -1,2 -1,3 0,0 0,1 -1,2 0,1 0,1 -1,2 0,0 -1,0 -2,0l-16 0c-1,0 -2,0 -3,0 0,-1 -1,-1 -2,-2 -1,0 -1,-1 -2,-2 0,-1 -1,-1 -1,-2l0 -98c0,-1 0,-2 -1,-3 0,-1 -1,-2 -2,-3 -1,0 -2,-1 -4,-1 -1,-1 -2,-1 -3,-1l-115 0c-1,0 -2,1 -4,1 -1,0 -2,1 -3,2 -1,0 -2,1 -2,2 -1,1 -1,2 -1,4l0 96c0,1 -1,1 -1,2 -1,1 -1,2 -2,3 -1,1 -2,1 -3,2 -1,0 -2,0 -3,0l-34 0c-1,0 -2,0 -3,0 -1,-1 -2,-2 -3,-2 -1,-1 -1,-2 -2,-3 0,-1 -1,-2 -1,-3zm36 -212c-1,0 -2,0 -3,1 -1,1 -1,2 -1,3l0 68c0,1 0,2 1,3 1,1 2,2 3,2l113 0c1,0 2,-1 3,-2 1,-1 2,-2 2,-3l0 -68c0,-1 -1,-2 -2,-3 -1,-1 -2,-1 -3,-1l-113 0zm210 -18c0,-1 0,-3 1,-5 1,-1 2,-3 3,-4 2,-1 3,-2 5,-3 1,-1 3,-1 5,-1l184 0c2,0 3,0 5,1 2,0 3,1 4,2 2,2 3,3 4,5 0,1 1,3 1,4l0 115c0,1 -1,3 -1,5 -1,2 -2,3 -4,4 -1,2 -2,3 -4,3 -2,1 -3,2 -5,2l-141 0c-1,0 -1,0 -2,0 -1,1 -2,1 -2,2 -1,1 -1,1 -2,2 0,1 0,1 0,2l0 93c0,1 0,2 -1,4 -1,1 -1,2 -2,3 -1,2 -2,3 -3,3 -1,1 -2,1 -3,1l-31 0c-1,0 -3,0 -4,-1 -1,-1 -3,-2 -4,-3 -1,-1 -1,-2 -2,-4 -1,-1 -1,-3 -1,-4l0 -226zm38 15c0,0 -1,0 -2,1 0,0 -1,0 -2,1 0,0 0,0 -1,1 0,1 0,1 0,2l0 77c0,1 0,2 1,3 1,0 3,1 4,1l139 0c1,0 2,-1 3,-2 1,-1 1,-2 1,-3l0 -76c0,-1 0,-1 0,-2 0,0 -1,-1 -1,-1 -1,-1 -1,-1 -2,-1 0,-1 -1,-1 -2,-1l-138 0zm203 215l0 -230c0,-1 0,-3 1,-4 1,-2 2,-3 3,-5 1,-1 2,-2 4,-3 1,-1 3,-1 4,-1l157 0c1,0 3,0 5,1 2,1 3,2 5,3 1,2 3,3 3,5 1,2 2,3 2,5l0 87c0,2 0,3 1,4 1,1 2,2 4,3 1,1 3,1 5,2 2,0 4,1 6,1 2,1 4,2 5,2 2,1 4,2 5,3 2,1 3,3 4,5 1,1 1,4 1,6l0 117c0,1 0,2 0,3 0,0 -1,1 -1,2 0,1 -1,1 -1,2 -1,0 -1,0 -2,0l-16 0c-1,0 -2,0 -3,0 -1,-1 -2,-1 -2,-2 -1,0 -2,-1 -2,-2 -1,-1 -1,-1 -1,-2l0 -98c0,-1 0,-2 -1,-3 -1,-1 -2,-2 -3,-3 -1,0 -2,-1 -3,-1 -1,-1 -2,-1 -3,-1l-116 0c-1,0 -2,1 -3,1 -1,0 -2,1 -3,2 -1,0 -2,1 -3,2 0,1 -1,2 -1,4l0 96c0,1 0,1 0,2 -1,1 -2,2 -3,3 0,1 -1,1 -2,2 -1,0 -2,0 -3,0l-34 0c-1,0 -2,0 -3,0 -1,-1 -2,-2 -3,-2 -1,-1 -2,-2 -2,-3 -1,-1 -1,-2 -1,-3zm36 -212c-1,0 -2,0 -3,1 -1,1 -2,2 -2,3l0 68c0,1 1,2 2,3 1,1 2,2 3,2l112 0c2,0 3,-1 4,-2 1,-1 1,-2 1,-3l0 -68c0,-1 0,-2 -1,-3 -1,-1 -2,-1 -4,-1l-112 0zm221 -31l19 0c1,0 2,0 3,0 0,1 1,1 2,2 0,1 1,1 1,2 0,1 1,1 1,2l0 92c0,3 0,6 0,8 1,2 1,4 2,6 1,2 2,4 3,6 1,2 2,4 4,6 1,1 2,3 3,5 1,1 2,3 3,5 1,1 1,3 2,5 0,2 1,4 1,6l0 99c0,1 -1,1 -1,2 0,1 -1,2 -2,3 0,1 -1,1 -2,2 -1,0 -2,0 -3,0l-36 0c0,0 -1,0 -2,0 -1,-1 -2,-1 -3,-1 -1,-1 -1,-2 -2,-2 0,-1 -1,-2 -1,-3l0 -237c0,-1 1,-2 1,-3 1,-1 1,-2 2,-3 1,0 1,-1 2,-1 1,-1 2,-1 3,-1zm68 18c0,-2 1,-4 2,-6 1,-2 2,-4 4,-6 1,-2 3,-3 5,-4 2,-2 4,-2 6,-2l179 0c2,0 4,0 6,1 2,1 3,2 5,3 2,2 3,3 4,5 1,2 1,4 1,5l0 45c0,1 0,1 0,2 0,1 -1,1 -1,2 -1,1 -1,1 -2,2 -1,0 -2,0 -2,0l-20 0c0,0 -1,0 -2,0 0,-1 -1,-1 -2,-2 -1,-1 -1,-1 -1,-2 -1,-1 -1,-1 -1,-2l0 -25c0,-1 0,-2 -1,-3 0,0 -1,-1 -1,-2 -1,0 -2,-1 -3,-1 -1,-1 -1,-1 -2,-1l-137 0c-1,0 -1,0 -2,1 -1,0 -1,1 -2,2 0,0 -1,1 -1,2 0,1 0,2 0,2l0 74c0,1 0,1 1,2 1,1 2,2 3,2l160 0c2,0 4,0 6,1 2,1 3,2 5,4 2,1 3,3 4,5 1,2 1,4 1,5l0 109c0,2 0,4 -1,6 -1,1 -2,3 -3,4 -2,2 -3,3 -5,4 -2,1 -3,1 -5,1l-180 0c-2,0 -4,0 -6,-1 -2,-1 -4,-2 -6,-4 -2,-2 -3,-3 -4,-5 -1,-2 -2,-4 -2,-6l0 -43c0,-1 0,-2 1,-3 0,-1 1,-1 1,-2 1,-1 2,-2 3,-2 1,-1 2,-1 3,-1l16 0c1,0 1,0 2,0 1,1 2,1 3,2 1,1 1,1 2,2 0,1 1,2 1,3l0 25c0,1 0,2 0,2 0,1 1,2 1,2 1,1 1,2 2,2 1,0 1,0 2,0l119 0c0,0 1,0 2,0 0,0 1,-1 2,-1 0,-1 1,-1 1,-2 0,0 1,-1 1,-2l0 -71c0,-1 -1,-2 -1,-2 0,-1 -1,-1 -1,-2 -1,-1 -1,-1 -2,-1 -1,-1 -1,-1 -2,-1l-139 0c-2,0 -4,0 -6,-1 -2,-1 -3,-2 -5,-3 -2,-2 -3,-3 -4,-5 -1,-2 -2,-3 -2,-5l0 -108zm242 -5c0,-2 1,-3 2,-5 0,-2 1,-3 3,-4 1,-2 2,-3 4,-3 2,-1 3,-1 5,-1l139 0c0,0 1,0 2,0 1,0 2,0 3,1 1,0 2,1 2,1 1,1 1,2 1,3l0 15c0,1 0,2 0,3 -1,1 -2,2 -2,2 -1,1 -2,2 -3,2 -1,0 -2,1 -3,1l-118 0c-1,0 -1,0 -2,0 0,0 -1,1 -1,1 -1,1 -1,1 -2,2 0,1 0,1 0,2l0 74c0,0 0,1 0,2 1,0 1,1 2,2 0,0 1,1 2,1 0,0 1,1 2,1l117 0c1,0 2,0 3,0 1,0 1,1 2,1 1,1 1,1 2,2 1,1 1,2 1,2l0 14c0,1 0,2 -1,3 0,1 -1,2 -2,2 -1,1 -1,2 -2,2 -1,1 -2,1 -3,1l-100 0c0,0 -1,1 -2,1 -1,0 -1,1 -2,1 0,1 -1,2 -1,2 -1,1 -1,2 -1,3l0 69c0,1 0,2 1,2 0,1 1,2 1,2 1,0 2,1 2,1 1,0 2,0 2,0l102 0c1,0 2,1 3,1 1,0 2,1 3,1 0,1 1,1 2,2 1,1 1,1 1,2l0 18c0,1 0,2 -1,2 0,1 0,2 -1,2 0,1 -1,1 -1,2 -1,0 -2,0 -2,0l-145 0c-2,0 -3,0 -5,-1 -1,0 -3,-1 -4,-2 -2,-1 -3,-2 -3,-3 -1,-1 -2,-3 -2,-5l0 -227z"/>
   </g>
  </g>
 </g>
</svg>
