<?xml version="1.0" encoding="UTF-8"?>
<!DOCTYPE svg PUBLIC "-//W3C//DTD SVG 1.1//EN" "http://www.w3.org/Graphics/SVG/1.1/DTD/svg11.dtd">
<!-- Creator: CorelDRAW X6 -->
<svg xmlns="http://www.w3.org/2000/svg" xml:space="preserve" width="15.8233in" height="8.28in" version="1.1" style="shape-rendering:geometricPrecision; text-rendering:geometricPrecision; image-rendering:optimizeQuality; fill-rule:evenodd; clip-rule:evenodd"
viewBox="0 0 15823 8280"
 xmlns:xlink="http://www.w3.org/1999/xlink">
 <defs>
  <style type="text/css">
   <![CDATA[
    .fil0 {fill:#FEFEFE}
   ]]>
  </style>
 </defs>
 <g id="Layer_x0020_1">
  <metadata id="CorelCorpID_0Corel-Layer"/>
  <g id="_799169952">
   <path class="fil0" d="M6684 1777c88,-292 158,-565 192,-889l213 900 -404 -12zm-3221 -1725c-128,-61 -3133,-70 -3435,-22 -39,147 -39,762 0,910l542 14c0,132 -43,1706 32,1834l954 1c41,-72 33,-81 32,-197 0,-75 -1,-151 -1,-226l0 -1412 517 0 -2 1735c9,76 -8,-15 11,57l23 47 959 -4 2 -867c161,189 354,760 520,869l2765 0c98,-64 101,-236 141,-350l724 0 103 348c687,2 1536,45 2210,-20 677,-65 1134,-390 1301,-943 208,-692 -141,-1294 -558,-1548 -465,-283 -1397,-282 -2018,-239l-1 2318c-245,-494 -690,-2086 -850,-2324l-1074 0c-72,108 -527,1445 -641,1763 -40,111 -69,200 -109,309l-130 303 -6 -2371 -996 -3 -11 602 -86 -129c-169,-320 -542,-485 -918,-457zm509 1639c6,-5 16,-10 21,-12l134 -59c147,-68 206,-172 302,-293l39 1080c-100,-79 -443,-608 -495,-716zm5297 -808c393,12 651,135 643,550 -8,414 -254,500 -643,516l0 -1066zm-6174 -137c274,0 256,-10 428,127 47,366 -88,412 -428,412l0 -539z"/>
   <path class="fil0" d="M9033 3641l0 3598c152,-166 353,-345 520,-513 452,-452 1261,-1219 1616,-1620 -337,39 -581,367 -763,531 -13,-296 54,-639 54,-955 0,-347 0,-694 0,-1042l1677 -1c4,-22 8,-42 9,-38 1,4 7,-18 9,-24 9,-40 10,-34 14,-84l-7 -538c-297,-50 -9101,-14 -10120,-14 -322,0 -1210,-40 -1466,17 -16,133 -19,401 -13,538 6,136 -7,138 126,148l3733 -4c1537,1 3074,0 4610,0z"/>
   <path class="fil0" d="M8907 8237l1418 3c12,-367 2,-748 2,-1114 0,-421 -84,-811 414,-713 179,269 70,1399 88,1831 261,11 534,3 796,4 736,0 595,214 595,-1732 0,-616 -172,-1059 -663,-1218 -360,-116 -438,96 -601,259l-1902 1893c-203,198 -164,295 -148,788z"/>
   <path class="fil0" d="M6531 6276c-83,-90 -58,-87 -107,-209 -115,58 -715,659 -782,775l857 4c148,702 458,1110 1223,1257 216,41 382,75 515,-56 627,-616 680,-549 655,-1234 -179,77 -287,220 -573,205 -498,-26 -527,-781 -27,-842 284,-34 429,129 607,215l0 -1162c-847,-385 -2138,-107 -2368,1047z"/>
   <path class="fil0" d="M4346 6415c25,-570 635,-452 651,0l-651 0zm-277 1805l704 -700c-381,8 -416,-133 -434,-498 232,0 464,-1 696,1 325,3 302,-67 467,-232 138,-138 630,-587 696,-726 -464,-865 -1980,-1136 -2806,-355 -659,623 -568,1732 -17,2173 142,114 454,304 693,337z"/>
   <path class="fil0" d="M592 5261l832 -34 1 1548c157,-90 508,-482 661,-635l1630 -1618c99,-117 60,-407 60,-607 -843,-32 -2278,-4 -3184,-4l0 1351z"/>
   <path class="fil0" d="M1295 7255l4 993 1504 -1 3 -2599c-141,73 -1098,1070 -1365,1328 -94,90 -146,100 -146,280z"/>
   <path class="fil0" d="M12479 161c-274,65 -304,284 -287,586 16,288 30,590 44,880 23,475 -96,1457 513,1362 296,-46 293,-343 287,-621l-35 -1831c-28,-247 -247,-441 -522,-375z"/>
   <path class="fil0" d="M13357 71c-274,107 -260,233 -253,559l33 1574c46,191 268,365 520,234 262,-137 212,-1061 230,-1390 9,-161 55,-638 17,-762 -54,-178 -319,-303 -546,-214z"/>
   <path class="fil0" d="M14276 306c-261,93 -262,212 -274,517 -10,250 -23,490 -34,741 -8,163 -52,595 -10,723 49,148 328,279 532,180 250,-120 336,-1918 311,-1986 -53,-144 -320,-248 -524,-175z"/>
   <path class="fil0" d="M4388 8095c901,159 1993,-268 2079,-988l-982 -1c-204,0 -358,227 -575,444 -144,144 -431,390 -522,545z"/>
   <path class="fil0" d="M13173 3646l1650 -6c49,-163 27,-515 17,-693l-1668 -6 1 704z"/>
   <path class="fil0" d="M15228 172c-162,86 -279,636 -348,852 -139,436 244,657 504,408 64,-61 352,-665 407,-786 149,-327 -234,-649 -563,-473z"/>
   <path class="fil0" d="M13173 3646c-224,-9 -797,-35 -990,16l-3 752c164,39 809,34 980,5l12 -773z"/>
   <path class="fil0" d="M11604 765c-333,255 -131,1221 308,827 419,-375 8,-1070 -308,-827z"/>
   <path class="fil0" d="M3045 5409l597 25 0 -623c-109,56 -544,489 -597,598z"/>
   <path class="fil0" d="M8223 8280c103,0 151,-11 244,-33 286,-68 226,-11 257,-465l-501 498z"/>
  </g>
 </g>
</svg>
